<svg width="50" height="50" viewBox="0 0 50 50" fill="none" xmlns="http://www.w3.org/2000/svg">
<g opacity="0.2">
<path fill-rule="evenodd" clip-rule="evenodd" d="M21.765 10.87C22.1433 10.5545 22.5801 10.3167 23.0504 10.1701C23.5206 10.0236 24.0151 9.97106 24.5057 10.0156C24.9962 10.0602 25.4732 10.201 25.9093 10.4299C26.3455 10.6589 26.7322 10.9715 27.0475 11.35L35.38 21.35C35.7092 21.7263 35.9599 22.1647 36.1172 22.6393C36.2745 23.114 36.3353 23.6153 36.296 24.1138C36.2567 24.6122 36.1181 25.0978 35.8884 25.542C35.6587 25.9861 35.3424 26.3798 34.9583 26.6999C34.5742 27.02 34.1299 27.2601 33.6516 27.406C33.1733 27.5518 32.6707 27.6006 32.1733 27.5493C31.6759 27.4981 31.1938 27.3479 30.7553 27.1076C30.3168 26.8673 29.9308 26.5417 29.62 26.15L21.285 16.15C20.6488 15.386 20.3419 14.4007 20.4319 13.4106C20.5219 12.4205 21.0014 11.5066 21.765 10.87Z" fill="black"/>
<path fill-rule="evenodd" clip-rule="evenodd" d="M21.765 36.63C21.0014 35.9934 20.5219 35.0795 20.4319 34.0894C20.3419 33.0993 20.6487 32.114 21.285 31.35L29.62 21.35C30.2646 20.6132 31.1718 20.1577 32.1477 20.0808C33.1237 20.0039 34.091 20.3116 34.8431 20.9384C35.5951 21.5651 36.0723 22.4611 36.1726 23.4349C36.273 24.4087 35.9885 25.3832 35.38 26.15L27.0475 36.15C26.7322 36.5285 26.3455 36.8411 25.9093 37.0701C25.4732 37.299 24.9962 37.4398 24.5057 37.4844C24.0151 37.5289 23.5206 37.4764 23.0503 37.3299C22.5801 37.1833 22.1433 36.9455 21.765 36.63Z" fill="black"/>
<path fill-rule="evenodd" clip-rule="evenodd" d="M31.25 23.75C31.25 24.7446 30.8549 25.6984 30.1517 26.4017C29.4484 27.1049 28.4946 27.5 27.5 27.5L7.5 27.5C6.50544 27.5 5.55161 27.1049 4.84835 26.4017C4.14509 25.6984 3.75 24.7446 3.75 23.75C3.75 22.7554 4.14509 21.8016 4.84835 21.0983C5.55161 20.3951 6.50544 20 7.5 20L27.5 20C28.4946 20 29.4484 20.3951 30.1517 21.0983C30.8549 21.8016 31.25 22.7554 31.25 23.75Z" fill="black"/>
</g>
<path fill-rule="evenodd" clip-rule="evenodd" d="M28.3675 14.0401C28.6221 13.828 28.9506 13.7257 29.2806 13.7557C29.6106 13.7857 29.9152 13.9456 30.1275 14.2001L38.46 24.2001C38.6628 24.4557 38.7576 24.7805 38.7242 25.1051C38.6907 25.4298 38.5317 25.7284 38.281 25.9373C38.0303 26.1462 37.7079 26.2488 37.3825 26.2232C37.0572 26.1975 36.7548 26.0457 36.54 25.8001L28.2075 15.8001C27.9954 15.5454 27.8931 15.217 27.9231 14.887C27.9531 14.5569 28.113 14.2523 28.3675 14.0401Z" fill="black"/>
<path fill-rule="evenodd" clip-rule="evenodd" d="M28.3675 35.96C28.113 35.7478 27.9531 35.4432 27.9231 35.1131C27.8931 34.7831 27.9954 34.4547 28.2075 34.2L36.54 24.2C36.7548 23.9544 37.0572 23.8026 37.3825 23.7769C37.7079 23.7513 38.0303 23.8539 38.281 24.0628C38.5317 24.2717 38.6907 24.5704 38.7242 24.895C38.7576 25.2196 38.6628 25.5444 38.46 25.8L30.1275 35.8C29.9152 36.0545 29.6106 36.2144 29.2806 36.2444C28.9506 36.2744 28.6221 36.1721 28.3675 35.96Z" fill="black"/>
<path fill-rule="evenodd" clip-rule="evenodd" d="M37.5 25C37.5 25.3315 37.3683 25.6495 37.1339 25.8839C36.8995 26.1183 36.5815 26.25 36.25 26.25L12.5 26.25C12.1685 26.25 11.8505 26.1183 11.6161 25.8839C11.3817 25.6495 11.25 25.3315 11.25 25C11.25 24.6685 11.3817 24.3505 11.6161 24.1161C11.8505 23.8817 12.1685 23.75 12.5 23.75L36.25 23.75C36.5815 23.75 36.8995 23.8817 37.1339 24.1161C37.3683 24.3505 37.5 24.6685 37.5 25Z" fill="black"/>
</svg>
