<svg width="50" height="50" viewBox="0 0 50 50" fill="none" xmlns="http://www.w3.org/2000/svg">
<g opacity="0.2">
<path fill-rule="evenodd" clip-rule="evenodd" d="M28.235 39.13C27.8567 39.4455 27.4199 39.6833 26.9496 39.8299C26.4794 39.9764 25.9849 40.0289 25.4943 39.9844C25.0038 39.9398 24.5268 39.799 24.0907 39.5701C23.6545 39.3411 23.2678 39.0285 22.9525 38.65L14.62 28.65C14.2908 28.2737 14.0401 27.8353 13.8828 27.3607C13.7255 26.886 13.6647 26.3847 13.704 25.8862C13.7433 25.3878 13.8819 24.9022 14.1116 24.458C14.3413 24.0139 14.6576 23.6202 15.0417 23.3001C15.4258 22.98 15.8701 22.7399 16.3484 22.594C16.8267 22.4482 17.3293 22.3994 17.8267 22.4507C18.3241 22.5019 18.8062 22.6521 19.2447 22.8924C19.6832 23.1327 20.0692 23.4583 20.38 23.85L28.715 33.85C29.3512 34.614 29.6581 35.5993 29.5681 36.5894C29.4781 37.5795 28.9986 38.4934 28.235 39.13Z" fill="black"/>
<path fill-rule="evenodd" clip-rule="evenodd" d="M28.235 13.37C28.9986 14.0066 29.4781 14.9205 29.5681 15.9106C29.6581 16.9007 29.3513 17.886 28.715 18.65L20.38 28.65C19.7354 29.3868 18.8282 29.8423 17.8523 29.9192C16.8763 29.9961 15.909 29.6884 15.1569 29.0616C14.4049 28.4349 13.9277 27.5389 13.8274 26.5651C13.727 25.5913 14.0115 24.6168 14.62 23.85L22.9525 13.85C23.2678 13.4715 23.6545 13.1589 24.0907 12.9299C24.5268 12.701 25.0038 12.5602 25.4943 12.5156C25.9849 12.4711 26.4794 12.5236 26.9497 12.6701C27.4199 12.8167 27.8567 13.0545 28.235 13.37Z" fill="black"/>
<path fill-rule="evenodd" clip-rule="evenodd" d="M18.75 26.25C18.75 25.2554 19.1451 24.3016 19.8483 23.5983C20.5516 22.8951 21.5054 22.5 22.5 22.5H42.5C43.4946 22.5 44.4484 22.8951 45.1516 23.5983C45.8549 24.3016 46.25 25.2554 46.25 26.25C46.25 27.2446 45.8549 28.1984 45.1516 28.9017C44.4484 29.6049 43.4946 30 42.5 30H22.5C21.5054 30 20.5516 29.6049 19.8483 28.9017C19.1451 28.1984 18.75 27.2446 18.75 26.25Z" fill="black"/>
</g>
<path fill-rule="evenodd" clip-rule="evenodd" d="M21.6325 35.9599C21.3779 36.172 21.0494 36.2743 20.7194 36.2443C20.3894 36.2143 20.0848 36.0544 19.8725 35.7999L11.54 25.7999C11.3372 25.5443 11.2424 25.2195 11.2758 24.8949C11.3093 24.5702 11.4683 24.2716 11.719 24.0627C11.9697 23.8538 12.2921 23.7512 12.6175 23.7768C12.9428 23.8025 13.2452 23.9543 13.46 24.1999L21.7925 34.1999C22.0046 34.4546 22.1069 34.783 22.0769 35.113C22.0469 35.4431 21.887 35.7477 21.6325 35.9599Z" fill="black"/>
<path fill-rule="evenodd" clip-rule="evenodd" d="M21.6325 14.04C21.887 14.2522 22.0469 14.5568 22.0769 14.8869C22.1069 15.2169 22.0046 15.5453 21.7925 15.8L13.46 25.8C13.2452 26.0456 12.9428 26.1974 12.6175 26.2231C12.2921 26.2487 11.9697 26.1461 11.719 25.9372C11.4683 25.7283 11.3093 25.4296 11.2758 25.105C11.2424 24.7804 11.3372 24.4556 11.54 24.2L19.8725 14.2C20.0848 13.9455 20.3894 13.7856 20.7194 13.7556C21.0494 13.7256 21.3779 13.8279 21.6325 14.04Z" fill="black"/>
<path fill-rule="evenodd" clip-rule="evenodd" d="M12.5 25C12.5 24.6685 12.6317 24.3505 12.8661 24.1161C13.1005 23.8817 13.4185 23.75 13.75 23.75H37.5C37.8315 23.75 38.1495 23.8817 38.3839 24.1161C38.6183 24.3505 38.75 24.6685 38.75 25C38.75 25.3315 38.6183 25.6495 38.3839 25.8839C38.1495 26.1183 37.8315 26.25 37.5 26.25H13.75C13.4185 26.25 13.1005 26.1183 12.8661 25.8839C12.6317 25.6495 12.5 25.3315 12.5 25Z" fill="black"/>
</svg>
