<svg width="35" height="35" viewBox="0 0 35 35" fill="none" xmlns="http://www.w3.org/2000/svg">
<path d="M17.5 2.91675C9.45002 2.91675 2.91669 9.45008 2.91669 17.5001C2.91669 25.5501 9.45002 32.0834 17.5 32.0834C25.55 32.0834 32.0834 25.5501 32.0834 17.5001C32.0834 9.45008 25.55 2.91675 17.5 2.91675ZM24.2667 12.8334C24.0479 15.1376 23.1 20.7376 22.6188 23.3188C22.4146 24.4126 22.0063 24.7772 21.6271 24.8209C20.7813 24.8938 20.1396 24.2667 19.3229 23.7272C18.0396 22.8813 17.3104 22.3563 16.0709 21.5397C14.6271 20.5917 15.5604 20.0667 16.3917 19.2209C16.6104 19.0022 20.3438 15.6042 20.4167 15.298C20.4268 15.2516 20.4255 15.2035 20.4128 15.1577C20.4001 15.112 20.3764 15.07 20.3438 15.0355C20.2563 14.9626 20.1396 14.9917 20.0375 15.0063C19.9063 15.0355 17.8646 16.3917 13.8834 19.0751C13.3 19.4688 12.775 19.673 12.3084 19.6584C11.7834 19.6438 10.7917 19.3667 10.0479 19.1188C9.12919 18.8272 8.4146 18.6667 8.47294 18.1563C8.5021 17.8938 8.86669 17.6313 9.5521 17.3542C13.8104 15.5022 16.6396 14.2772 18.0542 13.6938C22.1084 12.0022 22.9396 11.7105 23.4938 11.7105C23.6104 11.7105 23.8875 11.7397 24.0625 11.8855C24.2084 12.0022 24.2521 12.1626 24.2667 12.2792C24.2521 12.3667 24.2813 12.6292 24.2667 12.8334Z" fill="#F2F2F2"/>
</svg>
